<?xml version="1.0" standalone="no"?>
<!DOCTYPE svg PUBLIC "-//W3C//DTD SVG 20010904//EN"
 "http://www.w3.org/TR/2001/REC-SVG-20010904/DTD/svg10.dtd">
<svg version="1.0" xmlns="http://www.w3.org/2000/svg"
 width="2773.000000pt" height="2773.000000pt" viewBox="0 0 2773.000000 2773.000000"
 preserveAspectRatio="xMidYMid meet">
<metadata>
Created by potrace 1.11, written by Peter Selinger 2001-2013
</metadata>
<g transform="translate(0.000000,2773.000000) scale(0.100000,-0.100000)"
fill="#000000" stroke="none">
<path d="M13478 27725 c-2 -2 -82 -6 -178 -9 -96 -4 -205 -8 -242 -11 -36 -2
-106 -7 -155 -10 -48 -3 -110 -7 -138 -10 -27 -3 -79 -7 -115 -10 -36 -3 -85
-7 -110 -9 -84 -9 -155 -17 -185 -20 -16 -2 -57 -7 -90 -10 -54 -6 -109 -13
-260 -32 -27 -3 -58 -8 -69 -10 -10 -2 -44 -6 -75 -10 -31 -3 -59 -8 -62 -10
-3 -2 -28 -6 -56 -9 -27 -3 -58 -7 -69 -9 -10 -2 -39 -7 -64 -11 -25 -4 -54
-9 -65 -11 -11 -2 -92 -17 -180 -33 -197 -37 -189 -35 -309 -60 -54 -12 -108
-23 -120 -25 -19 -4 -219 -50 -271 -62 -11 -3 -31 -7 -45 -10 -14 -3 -33 -7
-42 -10 -9 -3 -25 -6 -35 -8 -38 -8 -418 -108 -425 -113 -5 -2 -16 -6 -25 -8
-125 -27 -890 -274 -1008 -325 -11 -5 -94 -37 -185 -71 -212 -80 -553 -223
-823 -346 -187 -85 -698 -338 -759 -376 -13 -8 -50 -29 -83 -47 -33 -18 -78
-42 -100 -54 -51 -28 -185 -104 -205 -116 -8 -5 -105 -63 -216 -129 -376 -224
-973 -627 -1254 -848 -66 -52 -430 -343 -450 -360 -14 -12 -76 -64 -137 -116
-62 -52 -119 -101 -126 -109 -8 -7 -45 -40 -82 -73 -254 -222 -719 -671 -890
-860 -15 -16 -64 -70 -108 -119 -45 -49 -86 -94 -92 -100 -5 -6 -44 -49 -85
-96 -41 -46 -87 -98 -102 -115 -33 -37 -54 -62 -97 -115 -19 -24 -40 -48 -45
-54 -11 -11 -94 -110 -127 -151 -105 -128 -371 -470 -401 -515 -17 -26 -171
-238 -185 -255 -4 -6 -35 -51 -69 -100 -33 -50 -79 -117 -101 -150 -40 -58
-181 -275 -238 -365 -48 -75 -245 -402 -245 -406 0 -3 -47 -85 -90 -154 -5 -8
-22 -40 -38 -70 -16 -30 -66 -122 -111 -205 -106 -196 -288 -564 -391 -790
-45 -99 -90 -199 -101 -222 -10 -24 -19 -45 -19 -48 0 -4 -9 -25 -19 -48 -10
-23 -31 -71 -46 -107 -15 -36 -33 -78 -40 -95 -7 -16 -41 -102 -75 -190 -33
-88 -67 -176 -75 -195 -151 -380 -412 -1244 -510 -1686 -2 -11 -18 -82 -35
-159 -35 -154 -38 -169 -45 -205 -2 -14 -13 -68 -24 -120 -11 -52 -22 -113
-25 -135 -4 -23 -9 -52 -11 -65 -16 -73 -25 -124 -31 -167 -3 -26 -8 -57 -10
-68 -4 -18 -14 -82 -30 -180 -2 -16 -6 -41 -9 -55 -2 -14 -7 -46 -10 -72 -3
-26 -7 -64 -10 -85 -5 -38 -13 -94 -20 -143 -2 -14 -6 -52 -10 -85 -3 -33 -8
-71 -10 -85 -2 -14 -7 -59 -10 -100 -3 -41 -8 -86 -9 -100 -2 -14 -7 -64 -11
-110 -3 -47 -8 -101 -10 -120 -3 -31 -8 -91 -20 -285 -26 -397 -26 -1370 0
-1645 3 -25 7 -90 10 -145 3 -55 8 -116 10 -135 2 -19 6 -72 10 -117 3 -46 8
-95 10 -110 2 -16 6 -59 9 -98 4 -38 9 -81 11 -95 2 -14 7 -54 10 -90 3 -36 7
-76 10 -90 5 -32 10 -67 29 -215 9 -66 18 -131 21 -145 6 -30 10 -53 30 -185
8 -55 17 -111 20 -125 3 -14 12 -61 20 -105 8 -44 21 -116 29 -160 19 -105 94
-452 105 -490 5 -16 12 -46 16 -65 11 -59 114 -455 167 -640 159 -562 427
-1296 658 -1805 10 -22 29 -65 43 -95 13 -30 39 -86 57 -125 38 -82 230 -472
261 -530 12 -22 26 -48 31 -58 13 -26 76 -144 106 -197 13 -25 40 -74 60 -110
20 -36 55 -98 79 -138 24 -41 43 -75 43 -77 0 -2 17 -32 39 -67 21 -35 71
-117 111 -183 92 -151 267 -425 339 -530 95 -140 263 -379 285 -406 12 -14 28
-36 36 -49 27 -41 281 -372 364 -475 98 -121 90 -112 236 -285 332 -394 823
-906 1195 -1245 50 -45 158 -142 185 -165 14 -12 52 -45 85 -75 75 -66 154
-134 187 -160 14 -11 50 -41 79 -67 56 -48 374 -301 444 -353 22 -16 42 -32
45 -35 24 -28 525 -380 758 -532 78 -51 137 -88 392 -248 41 -26 120 -73 175
-105 55 -32 116 -67 135 -78 224 -131 829 -446 1030 -536 41 -19 133 -60 203
-92 70 -33 130 -59 133 -59 3 0 29 -11 57 -23 53 -24 348 -146 422 -174 22 -9
49 -19 60 -24 153 -63 660 -238 935 -322 287 -88 891 -249 1030 -273 14 -3 77
-16 140 -29 63 -13 126 -27 140 -29 14 -3 50 -10 80 -15 30 -6 66 -13 80 -16
14 -3 48 -9 75 -14 28 -6 66 -13 85 -15 19 -3 44 -7 55 -9 41 -8 91 -17 130
-22 22 -3 51 -8 65 -11 30 -5 52 -9 145 -23 39 -6 88 -13 110 -17 62 -9 76
-11 135 -18 30 -4 71 -9 90 -11 53 -7 98 -12 170 -20 36 -3 81 -8 100 -10 59
-7 162 -17 215 -20 28 -2 70 -6 95 -9 25 -3 92 -8 150 -11 58 -4 130 -8 160
-10 422 -26 1295 -26 1610 0 19 1 82 6 140 9 58 4 125 9 150 11 25 2 79 7 120
10 130 10 274 24 320 31 19 2 55 7 80 9 56 5 138 16 165 21 11 3 40 6 65 9 25
2 75 8 110 14 36 5 83 13 105 16 23 3 50 7 62 9 11 3 38 7 59 11 80 12 103 16
269 46 94 16 226 41 295 55 69 14 134 27 145 30 11 2 54 11 95 20 41 9 80 17
85 19 6 1 21 5 35 8 14 4 77 18 140 33 392 90 1084 298 1480 444 47 18 105 39
130 47 25 9 50 19 55 23 6 3 30 13 55 20 25 7 50 17 55 20 6 4 33 15 60 25 28
10 54 22 60 26 5 5 15 9 22 9 6 0 61 21 120 46 59 25 146 61 193 81 98 41 139
59 269 120 51 23 95 43 97 43 8 0 474 232 609 303 195 103 266 141 372 203 51
30 94 54 96 54 3 0 97 55 208 123 574 347 1074 695 1556 1083 137 111 338 278
353 294 3 3 36 32 75 65 38 33 76 67 85 75 9 8 54 49 100 90 46 41 95 85 109
98 190 171 549 531 781 782 98 106 132 143 185 204 33 38 67 76 76 85 25 26
267 315 380 456 305 378 624 826 901 1265 89 142 268 438 268 444 0 2 18 34
40 70 195 321 546 1032 739 1496 29 69 56 134 61 145 120 269 368 983 484
1395 36 129 70 249 76 265 9 32 79 306 86 340 10 49 13 64 27 120 9 33 25 107
37 165 21 101 25 120 34 158 21 89 95 494 111 607 3 22 10 65 15 95 5 30 12
78 16 105 3 28 8 59 10 70 2 11 6 44 10 73 3 29 7 61 9 70 2 10 6 45 10 77 4
33 8 71 10 84 3 13 7 58 11 100 3 42 7 78 9 81 2 3 6 46 10 95 4 50 8 106 10
125 2 19 7 71 10 115 4 44 8 98 10 120 16 198 20 393 20 985 0 377 -4 739 -8
805 -13 180 -15 213 -22 295 -3 41 -8 98 -10 125 -6 84 -15 178 -20 210 -2 17
-7 50 -9 75 -7 64 -36 296 -41 336 -3 19 -7 49 -9 67 -6 43 -35 235 -40 267
-3 14 -10 59 -16 100 -13 79 -17 100 -25 140 -2 14 -7 41 -10 60 -3 19 -12 67
-20 105 -8 39 -16 84 -19 100 -2 17 -12 64 -21 105 -18 84 -20 93 -36 170 -6
30 -20 91 -31 135 -11 44 -22 91 -25 105 -6 38 -49 207 -95 375 -22 83 -42
157 -44 165 -6 27 -92 313 -129 430 -145 459 -365 1045 -519 1382 -14 31 -26
59 -26 61 0 3 -25 57 -55 122 -30 64 -55 118 -55 120 0 15 -339 687 -389 769
-10 17 -36 65 -58 106 -22 41 -71 127 -108 190 -37 63 -76 131 -87 150 -30 53
-58 100 -93 155 -17 28 -51 82 -75 120 -211 341 -672 998 -853 1215 -7 8 -59
74 -117 145 -57 72 -112 139 -121 150 -10 11 -46 54 -81 95 -34 41 -65 77 -68
80 -3 3 -52 59 -110 125 -57 66 -107 122 -110 125 -3 3 -50 54 -105 115 -130
143 -120 132 -271 286 -209 212 -526 517 -644 619 -35 31 -88 77 -140 124 -25
23 -69 61 -99 86 -29 25 -59 50 -65 55 -6 6 -38 32 -71 60 -33 27 -69 57 -80
67 -163 145 -651 511 -975 733 -63 43 -126 86 -140 96 -49 34 -346 226 -394
255 -28 16 -64 38 -82 49 -65 40 -170 103 -204 123 -19 11 -93 53 -165 94
-129 74 -199 113 -390 215 -104 56 -620 313 -628 313 -3 0 -53 23 -111 50 -58
28 -109 50 -111 50 -3 0 -24 9 -48 19 -99 45 -158 71 -162 71 -2 0 -28 11 -57
24 -215 98 -823 321 -1148 422 -235 73 -336 103 -390 118 -30 8 -86 24 -125
36 -38 11 -79 22 -90 24 -11 3 -47 12 -80 21 -83 23 -292 75 -340 84 -22 5
-101 22 -175 39 -123 28 -324 69 -425 88 -22 4 -44 8 -50 10 -21 5 -72 14
-130 24 -33 5 -71 12 -85 14 -14 3 -43 7 -65 11 -22 3 -78 12 -125 20 -47 8
-105 17 -130 20 -25 3 -56 8 -70 10 -14 3 -45 7 -70 10 -25 3 -56 7 -70 9 -14
3 -52 8 -85 11 -33 3 -96 10 -140 15 -44 5 -105 12 -135 15 -30 3 -68 7 -85 9
-16 2 -70 7 -120 10 -49 4 -108 9 -130 11 -87 9 -176 15 -300 21 -71 4 -155 8
-185 10 -67 5 -988 13 -992 9z"/>
</g>
</svg>
